<svg xmlns="http://www.w3.org/2000/svg" xmlns:xlink="http://www.w3.org/1999/xlink" width="128" height="128" class="icon" p-id="5104" t="1603532459225" version="1.1" viewBox="0 0 1024 1024"><defs><style type="text/css"/></defs><path fill="#fff" d="M802.305 925.035H185.288c-29.546 0-53.584-24.038-53.584-53.585V162.789c0-29.546 24.038-53.584 53.584-53.584h617.017c29.547 0 53.585 24.038 53.585 53.584V871.45c0 29.547-24.038 53.585-53.585 53.585z m-617.017-805.83c-24.033 0-43.584 19.552-43.584 43.584V871.45c0 24.033 19.552 43.585 43.584 43.585h617.017c24.033 0 43.585-19.552 43.585-43.585V162.789c0-24.033-19.552-43.584-43.585-43.584H185.288z" p-id="5105"/><path fill="#fff" d="M701.906 302.553H285.679c-10.304 0-15.528-2.499-15.528-7.427s5.225-7.427 15.528-7.427h416.227c10.304 0 15.528 2.499 15.528 7.427s-5.225 7.427-15.528 7.427zM704.049 419.674H287.822c-10.305 0-15.529-2.499-15.529-7.427 0-4.929 5.225-7.428 15.529-7.428h416.227c10.304 0 15.528 2.499 15.528 7.428 0 4.928-5.224 7.427-15.528 7.427zM702.977 532.954H286.751c-10.304 0-15.529-2.499-15.529-7.428 0-4.928 5.225-7.427 15.529-7.427h416.226c10.305 0 15.529 2.499 15.529 7.427 0 4.929-5.225 7.428-15.529 7.428zM705.12 650.074H288.893c-10.304 0-15.529-2.499-15.529-7.427s5.225-7.427 15.529-7.427H705.12c10.304 0 15.528 2.499 15.528 7.427s-5.224 7.427-15.528 7.427zM700.935 761.781H284.709c-10.305 0-15.529-2.498-15.529-7.426s5.225-7.427 15.529-7.427h416.226c10.305 0 15.529 2.499 15.529 7.427s-5.224 7.426-15.529 7.426z" p-id="5106"/></svg>